<svg width="2850" height="640" viewBox="0 0 2850 640" fill="none" xmlns="http://www.w3.org/2000/svg">
<rect width="2850" height="640" fill="#E5E5E5"/>
<g clip-path="url(#clip0)">
<rect width="2850" height="640" fill="white"/>
<path d="M450.79 294.72C450.79 343.113 441.64 385 423.34 420.38C405.04 455.353 378.607 480.77 344.04 496.63L406.26 610.7H350.75L296.46 511.27C282.227 513.303 268.807 514.32 256.2 514.32C215.127 514.32 179.95 505.17 150.67 486.87C121.797 468.57 99.6333 442.95 84.18 410.01C69.1333 377.07 61.61 338.64 61.61 294.72C61.61 250.8 69.1333 212.37 84.18 179.43C99.6333 146.49 121.797 120.87 150.67 102.57C179.95 84.27 215.127 75.12 256.2 75.12C297.273 75.12 332.247 84.27 361.12 102.57C390.4 120.87 412.563 146.49 427.61 179.43C443.063 212.37 450.79 250.8 450.79 294.72ZM119.56 294.72C119.56 347.18 130.947 388.863 153.72 419.77C176.493 450.27 210.653 465.52 256.2 465.52C301.747 465.52 335.907 450.27 358.68 419.77C381.453 388.863 392.84 347.18 392.84 294.72C392.84 242.26 381.453 200.78 358.68 170.28C335.907 139.373 301.747 123.92 256.2 123.92C210.653 123.92 176.493 139.373 153.72 170.28C130.947 200.78 119.56 242.26 119.56 294.72ZM792.295 507L783.755 462.47C765.048 479.957 746.951 492.97 729.465 501.51C712.385 510.05 692.255 514.32 669.075 514.32C640.201 514.32 617.631 504.763 601.365 485.65C585.505 466.537 577.575 441.12 577.575 409.4V188.58H631.255V402.08C631.255 421.6 635.728 437.257 644.675 449.05C653.621 460.437 666.431 466.13 683.105 466.13C702.218 466.13 718.891 462.673 733.125 455.76C747.765 448.847 763.015 438.477 778.875 424.65V188.58H832.555V436.24L845.975 507H792.295ZM987.89 116.6C976.504 116.6 967.15 112.94 959.83 105.62C952.917 98.3 949.46 88.9466 949.46 77.56C949.46 66.1733 952.917 56.82 959.83 49.5C967.15 42.18 976.504 38.52 987.89 38.52C999.277 38.52 1008.43 42.18 1015.34 49.5C1022.66 56.82 1026.32 66.1733 1026.32 77.56C1026.32 88.9466 1022.66 98.3 1015.34 105.62C1008.43 112.94 999.277 116.6 987.89 116.6ZM1014.73 188.58V507H961.05V188.58H1014.73ZM1244.87 358.16L1194.85 414.28V507H1141.17V47.06H1194.85V344.13L1333.93 188.58H1397.37L1280.86 318.51L1404.69 507H1338.81L1244.87 358.16ZM1503.55 82.44H1641.41C1747.15 82.44 1800.01 128.8 1800.01 221.52C1800.01 268.287 1786.8 304.073 1760.36 328.88C1734.34 353.28 1696.11 365.48 1645.68 365.48H1557.23V507H1503.55V82.44ZM1643.85 315.46C1678.83 315.46 1703.84 308.343 1718.88 294.11C1734.34 279.877 1742.06 256.493 1742.06 223.96C1742.06 191.427 1734.34 168.247 1718.88 154.42C1703.84 140.593 1678.01 133.68 1641.41 133.68H1557.23V315.46H1643.85ZM2089.25 507L2080.71 461.25C2064.85 478.737 2047.57 491.953 2028.86 500.9C2010.56 509.847 1989.82 514.32 1966.64 514.32C1937.77 514.32 1914.38 506.187 1896.49 489.92C1878.6 473.247 1869.65 451.287 1869.65 424.04C1869.65 388.66 1883.88 362.633 1912.35 345.96C1940.82 329.287 1977.42 320.95 2022.15 320.95C2038.42 320.95 2056.31 321.967 2075.83 324V302.04C2075.83 280.08 2069.73 262.593 2057.53 249.58C2045.74 236.16 2030.28 229.45 2011.17 229.45C1988.4 229.45 1967.66 232.5 1948.95 238.6C1930.65 244.7 1911.74 254.257 1892.22 267.27V215.42C1911.33 202.813 1930.85 194.07 1950.78 189.19C1970.71 183.903 1993.48 181.26 2019.1 181.26C2051.63 181.26 2078.07 191.63 2098.4 212.37C2119.14 233.11 2129.51 260.56 2129.51 294.72V436.24L2142.93 507H2089.25ZM1977.62 469.18C1997.14 469.18 2014.63 465.113 2030.08 456.98C2045.53 448.847 2060.78 437.053 2075.83 421.6V361.82H2019.71C1958.3 361.82 1927.6 381.543 1927.6 420.99C1927.6 435.63 1932.28 447.423 1941.63 456.37C1950.98 464.91 1962.98 469.18 1977.62 469.18ZM2313.78 188.58H2401.62V234.94H2313.78V417.33C2313.78 432.377 2317.03 444.577 2323.54 453.93C2330.45 462.877 2340.41 467.35 2353.43 467.35C2362.37 467.35 2370.3 466.537 2377.22 464.91C2384.54 462.877 2392.67 459.827 2401.62 455.76V503.34C2392.26 507.813 2383.32 510.66 2374.78 511.88C2366.24 513.507 2355.87 514.32 2343.67 514.32C2317.64 514.32 2297.1 505.983 2282.06 489.31C2267.42 472.637 2260.1 450.473 2260.1 422.82V234.94H2199.1V188.58H2260.1V103.18L2313.78 75.12V188.58ZM2659.28 181.26C2689.37 181.26 2712.14 190.613 2727.6 209.32C2743.05 227.62 2750.78 253.24 2750.78 286.18V507H2697.1V293.5C2697.1 273.167 2692.83 257.51 2684.29 246.53C2675.75 235.143 2662.73 229.45 2645.25 229.45C2625.32 229.45 2608.44 232.703 2594.62 239.21C2581.2 245.717 2566.15 256.29 2549.48 270.93V507H2495.8V47.06H2549.48V228.23C2567.37 211.963 2584.25 200.17 2600.11 192.85C2616.37 185.123 2636.1 181.26 2659.28 181.26Z" fill="#883895"/>
<rect x="189.007" y="177" width="60.9359" height="195.639" rx="30.468" transform="rotate(15.4163 189.007 177)" fill="#883895"/>
<rect width="60.9359" height="195.639" rx="30.468" transform="matrix(-0.96402 0.265831 0.265831 0.96402 318.993 177)" fill="#883895"/>
</g>
<defs>
<clipPath id="clip0">
<rect width="2850" height="640" fill="white"/>
</clipPath>
</defs>
</svg>
