<svg width="691" height="568" viewBox="0 0 691 568" fill="none" xmlns="http://www.w3.org/2000/svg">
<rect width="691" height="568" fill="#E5E5E5"/>
<g clip-path="url(#clip0)">
<rect width="691" height="568" fill="white"/>
<rect x="248.007" y="118" width="60.9359" height="195.639" rx="30.468" transform="rotate(15.4163 248.007 118)" fill="#883895"/>
<rect width="60.9359" height="195.639" rx="30.468" transform="matrix(-0.96402 0.265831 0.265831 0.96402 377.993 118)" fill="#883895"/>
<path d="M509.79 235.72C509.79 284.113 500.64 326 482.34 361.38C464.04 396.353 437.607 421.77 403.04 437.63L465.26 551.7H409.75L355.46 452.27C341.227 454.303 327.807 455.32 315.2 455.32C274.127 455.32 238.95 446.17 209.67 427.87C180.797 409.57 158.633 383.95 143.18 351.01C128.133 318.07 120.61 279.64 120.61 235.72C120.61 191.8 128.133 153.37 143.18 120.43C158.633 87.49 180.797 61.87 209.67 43.57C238.95 25.27 274.127 16.12 315.2 16.12C356.273 16.12 391.247 25.27 420.12 43.57C449.4 61.87 471.563 87.49 486.61 120.43C502.063 153.37 509.79 191.8 509.79 235.72ZM178.56 235.72C178.56 288.18 189.947 329.863 212.72 360.77C235.493 391.27 269.653 406.52 315.2 406.52C360.747 406.52 394.907 391.27 417.68 360.77C440.453 329.863 451.84 288.18 451.84 235.72C451.84 183.26 440.453 141.78 417.68 111.28C394.907 80.3733 360.747 64.92 315.2 64.92C269.653 64.92 235.493 80.3733 212.72 111.28C189.947 141.78 178.56 183.26 178.56 235.72Z" fill="#883895"/>
</g>
<defs>
<clipPath id="clip0">
<rect width="691" height="568" fill="white"/>
</clipPath>
</defs>
</svg>
